#!OML:ASF G:\ViconDB\ViconDB\414\test\team2\shane.ASF
:FULLY-SPECIFIED
:DEGREES
206
root 3.88909 16.8142 -0.195996 -10.0019 -2.34897 -4.55578
lowerback 9.27429 -3.55392 -0.748835
upperback 5.31387 -4.78164 4.2273
thorax 0.77238 -2.49892 5.2022
lowerneck -20.2983 -0.749678 -7.74242
upperneck 27.0888 -0.517578 6.75923
head 12.3658 -0.143933 3.81713
rclavicle 4.11981e-014 -2.70347e-014
rhumerus -41.567 5.91367 -85.2862
rradius 30.1865
rwrist 32.0656
rhand -29.9778 -15.3339
rfingers 7.12502
rthumb -3.29603 -45.2881
lclavicle 4.11981e-014 -2.70347e-014
lhumerus -20.9648 -14.528 95.283
lradius 32.7398
lwrist -13.9504
lhand -42.1499 7.31338
lfingers 7.12502
lthumb -15.0396 36.7471
rfemur -23.3826 -10.6111 19.656
rtibia 53.357
rfoot -13.5096 5.59798
rtoes -13.7155
lfemur 12.2201 8.97039 -13.6398
ltibia 27.6327
lfoot -25.217 -12.091
ltoes -14.4756
207
root 3.89355 16.8797 -0.040508 -9.92723 -2.19373 -4.64169
lowerback 9.32121 -3.75724 -0.655683
upperback 5.07008 -5.03527 4.46003
thorax 0.531657 -2.62142 5.42717
lowerneck -20.0587 -0.619785 -7.61316
upperneck 27.3085 -0.265881 6.31316
head 12.3824 -0.0849158 3.66635
rclavicle 7.20594e-015 -1.03368e-014
rhumerus -42.159 5.6754 -84.7704
rradius 29.7543
rwrist 32.17
rhand -29.9413 -14.8514
rfingers 7.12502
rthumb -3.26075 -44.8062
lclavicle 7.20594e-015 -1.03368e-014
lhumerus -20.5551 -14.2622 95.271
lradius 32.5673
lwrist -14.4045
lhand -42.1118 6.96641
lfingers 7.12502
lthumb -15.0029 36.4029
rfemur -23.8018 -10.1917 20.077
rtibia 51.3766
rfoot -11.7283 5.83099
rtoes -12.9027
lfemur 13.5026 8.85774 -13.4517
ltibia 25.7022
lfoot -23.9427 -12.576
ltoes -15.0829
208
root 3.88761 16.9395 0.117717 -9.80815 -2.06177 -4.47983
lowerback 9.20661 -3.89017 -0.929793
upperback 4.8813 -5.23027 4.59137
thorax 0.455914 -2.72415 5.73293
lowerneck -19.9345 -0.472747 -7.28469
upperneck 27.514 -0.0448496 5.86037
head 12.4212 -0.0178611 3.47496
rclavicle -1.15593e-013 6.99722e-014
rhumerus -42.8591 5.38555 -84.4711
rradius 29.829
rwrist 31.8826
rhand -29.623 -14.9852
rfingers 7.12502
rthumb -2.95338 -44.9445
lclavicle -1.15593e-013 6.99722e-014
lhumerus -20.1146 -14.9972 95.178
lradius 32.477
lwrist -14.1346
lhand -42.1989 7.20942
lfingers 7.12502
lthumb -15.0868 36.6396
rfemur -24.325 -10.0851 20.3274
rtibia 49.4821
rfoot -10.1544 6.28406
rtoes -13.0669
lfemur 14.7039 8.71911 -13.5112
ltibia 23.8816
lfoot -22.7609 -13.0442
ltoes -15.7479
209
root 3.88748 16.9868 0.266175 -9.69626 -1.74236 -4.57307
lowerback 9.22763 -4.15626 -0.907592
upperback 4.6562 -5.57395 4.75985
thorax 0.262733 -2.89259 5.93568
lowerneck -19.8356 -0.316351 -7.25514
upperneck 27.8398 0.189286 5.74105
head 12.5123 0.0657123 3.47063
rclavicle -2.76808e-014 -1.27222e-014
rhumerus -43.5199 5.43042 -84.2623
rradius 29.74
rwrist 31.7397
rhand -29.3319 -14.9018
rfingers 7.12502
rthumb -2.6722 -44.8649
lclavicle -2.76808e-014 -1.27222e-014
lhumerus -19.6526 -15.2616 95.0223
lradius 32.2793
lwrist -13.8479
lhand -42.0969 7.07016
lfingers 7.12502
lthumb -14.9885 36.5077
rfemur -24.7874 -10.2266 20.8383
rtibia 47.6159
rfoot -8.90111 6.59023
rtoes -13.7428
lfemur 15.7967 8.50716 -13.2923
ltibia 22.1468
lfoot -21.4645 -13.73
ltoes -15.8973
210
root 3.8837 17.0252 0.418967 -9.55362 -1.51583 -4.59304
lowerback 9.08698 -4.31844 -0.911923
upperback 4.5182 -5.78794 4.912
thorax 0.237007 -3.0004 6.10816
lowerneck -19.8783 -0.278134 -7.38067
upperneck 28.123 0.275636 5.7646
head 12.6278 0.0881066 3.52588
rclavicle 8.91549e-014 -6.04305e-014
rhumerus -44.0849 4.74743 -83.7693
rradius 29.7797
rwrist 32.105
rhand -29.034 -15.019
rfingers 7.12502
rthumb -2.38458 -44.9855
lclavicle 8.91549e-014 -6.04305e-014
lhumerus -18.9469 -15.3839 94.8911
lradius 31.9615
lwrist -14.0054
lhand -42.0461 6.91396
lfingers 7.12502
lthumb -14.9395 36.3552
rfemur -25.2195 -10.1516 21.2071
rtibia 45.8654
rfoot -7.24925 6.95072
rtoes -13.8499
lfemur 16.9069 8.23977 -13.1877
ltibia 20.4094
lfoot -20.3984 -14.1998
ltoes -16.814
211
root 3.88382 17.046 0.573569 -9.4902 -1.37175 -4.54456
lowerback 8.98096 -4.46514 -0.881833
upperback 4.44077 -5.9804 5.02133
thorax 0.24573 -3.09766 6.21419
lowerneck -19.9784 -0.198495 -7.26624
upperneck 28.3555 0.411895 5.57622
head 12.733 0.131075 3.46442
rclavicle -4.6118e-014 6.36111e-015
rhumerus -44.453 4.68407 -83.4578
rradius 29.5993
rwrist 31.9618
rhand -28.6617 -15.0129
rfingers 7.12502
rthumb -2.02498 -44.9831
lclavicle -4.6118e-014 6.36111e-015
lhumerus -18.1904 -15.7149 94.6454
lradius 31.6022
lwrist -14.2206
lhand -42.0142 6.55115
lfingers 7.12502
lthumb -14.9088 35.9946
rfemur -25.6403 -10.3761 21.5664
rtibia 44.2907
rfoot -6.0808 7.22911
rtoes -15.1221
lfemur 18.0303 8.32334 -13.0833
ltibia 19.0685
lfoot -19.9204 -14.5357
ltoes -17.7408
212
root 3.88555 17.067 0.729427 -9.39271 -1.21026 -4.42911
lowerback 8.85718 -4.61345 -0.924754
upperback 4.29837 -6.17874 5.13823
thorax 0.206526 -3.19728 6.37088
lowerneck -19.7668 -0.145375 -7.31318
upperneck 28.4054 0.53123 5.43277
head 12.7009 0.156129 3.43385
rclavicle 5.92378e-014 3.97569e-015
rhumerus -45.1679 4.78676 -83.2202
rradius 29.6725
rwrist 31.6708
rhand -28.8337 -14.7484
rfingers 7.12502
rthumb -2.19112 -44.7169
lclavicle 5.92378e-014 3.97569e-015
lhumerus -17.6075 -16.2786 94.5489
lradius 31.7113
lwrist -13.2805
lhand -41.6426 6.89443
lfingers 7.12502
lthumb -14.5509 36.3641
rfemur -26.0651 -10.683 21.766
rtibia 42.8222
rfoot -4.47285 7.62055
rtoes -14.6706
lfemur 19.0743 8.23921 -13.0799
ltibia 17.69
lfoot -19.0773 -14.9608
ltoes -17.4329
